<mxfile host="app.diagrams.net" modified="2021-02-08T11:22:08.244Z" agent="5.0 (Windows NT 10.0; Win64; x64) AppleWebKit/537.36 (KHTML, like Gecko) Chrome/88.0.4324.96 Safari/537.36 Edg/88.0.705.56" etag="2lmmVnUL1Ja12QW-aQvL" version="14.3.0" type="github">
  <diagram name="Page-1" id="9361dd3d-8414-5efd-6122-117bd74ce7a7">
    <mxGraphModel dx="2530" dy="2967" grid="1" gridSize="10" guides="1" tooltips="1" connect="1" arrows="1" fold="1" page="0" pageScale="1.5" pageWidth="826" pageHeight="1169" background="#ffffff" math="0" shadow="0">
      <root>
        <mxCell id="0" />
        <mxCell id="1" parent="0" />
        <mxCell id="Zwns_LGNWtH9GuJmWQfA-93" value="CoordinatorLayout" style="shape=umlLifeline;perimeter=lifelinePerimeter;whiteSpace=wrap;html=1;container=1;collapsible=0;recursiveResize=0;outlineConnect=0;" vertex="1" parent="1">
          <mxGeometry x="-431" y="-1640" width="120" height="1350" as="geometry" />
        </mxCell>
        <mxCell id="Zwns_LGNWtH9GuJmWQfA-95" value="" style="html=1;points=[];perimeter=orthogonalPerimeter;" vertex="1" parent="Zwns_LGNWtH9GuJmWQfA-93">
          <mxGeometry x="55" y="90" width="10" height="160" as="geometry" />
        </mxCell>
        <mxCell id="Zwns_LGNWtH9GuJmWQfA-107" style="edgeStyle=orthogonalEdgeStyle;rounded=0;orthogonalLoop=1;jettySize=auto;html=1;" edge="1" parent="Zwns_LGNWtH9GuJmWQfA-93" source="Zwns_LGNWtH9GuJmWQfA-95" target="Zwns_LGNWtH9GuJmWQfA-93">
          <mxGeometry relative="1" as="geometry">
            <Array as="points">
              <mxPoint x="70" y="100" />
            </Array>
          </mxGeometry>
        </mxCell>
        <mxCell id="Zwns_LGNWtH9GuJmWQfA-111" value="" style="html=1;points=[];perimeter=orthogonalPerimeter;" vertex="1" parent="Zwns_LGNWtH9GuJmWQfA-93">
          <mxGeometry x="60" y="120" width="10" height="20" as="geometry" />
        </mxCell>
        <mxCell id="Zwns_LGNWtH9GuJmWQfA-112" value="getTopSortedChildren" style="edgeStyle=orthogonalEdgeStyle;html=1;align=left;spacingLeft=2;endArrow=block;rounded=0;entryX=1;entryY=0;" edge="1" target="Zwns_LGNWtH9GuJmWQfA-111" parent="Zwns_LGNWtH9GuJmWQfA-93" source="Zwns_LGNWtH9GuJmWQfA-95">
          <mxGeometry relative="1" as="geometry">
            <mxPoint x="70" y="100" as="sourcePoint" />
            <Array as="points">
              <mxPoint x="95" y="100" />
              <mxPoint x="95" y="120" />
            </Array>
          </mxGeometry>
        </mxCell>
        <mxCell id="Zwns_LGNWtH9GuJmWQfA-148" value="" style="html=1;points=[];perimeter=orthogonalPerimeter;" vertex="1" parent="Zwns_LGNWtH9GuJmWQfA-93">
          <mxGeometry x="55" y="372" width="10" height="188" as="geometry" />
        </mxCell>
        <mxCell id="Zwns_LGNWtH9GuJmWQfA-171" value="" style="html=1;points=[];perimeter=orthogonalPerimeter;" vertex="1" parent="Zwns_LGNWtH9GuJmWQfA-93">
          <mxGeometry x="55" y="590" width="10" height="90" as="geometry" />
        </mxCell>
        <mxCell id="Zwns_LGNWtH9GuJmWQfA-177" value="onNestedScrollAccepted" style="html=1;verticalAlign=bottom;endArrow=block;" edge="1" parent="Zwns_LGNWtH9GuJmWQfA-93">
          <mxGeometry x="0.0934" y="-10" width="80" relative="1" as="geometry">
            <mxPoint x="70" y="670" as="sourcePoint" />
            <mxPoint x="280" y="670" as="targetPoint" />
            <mxPoint as="offset" />
          </mxGeometry>
        </mxCell>
        <mxCell id="Zwns_LGNWtH9GuJmWQfA-196" value="" style="html=1;points=[];perimeter=orthogonalPerimeter;" vertex="1" parent="Zwns_LGNWtH9GuJmWQfA-93">
          <mxGeometry x="55" y="870" width="10" height="80" as="geometry" />
        </mxCell>
        <mxCell id="Zwns_LGNWtH9GuJmWQfA-207" value="" style="html=1;points=[];perimeter=orthogonalPerimeter;" vertex="1" parent="Zwns_LGNWtH9GuJmWQfA-93">
          <mxGeometry x="55" y="1100" width="10" height="100" as="geometry" />
        </mxCell>
        <mxCell id="Zwns_LGNWtH9GuJmWQfA-94" value="AppBarLayout&lt;br&gt;$ScrollingViewBehavior" style="shape=umlLifeline;perimeter=lifelinePerimeter;whiteSpace=wrap;html=1;container=1;collapsible=0;recursiveResize=0;outlineConnect=0;" vertex="1" parent="1">
          <mxGeometry x="-220" y="-1640" width="160" height="1300" as="geometry" />
        </mxCell>
        <mxCell id="Zwns_LGNWtH9GuJmWQfA-115" value="" style="html=1;points=[];perimeter=orthogonalPerimeter;" vertex="1" parent="Zwns_LGNWtH9GuJmWQfA-94">
          <mxGeometry x="75" y="190" width="10" height="40" as="geometry" />
        </mxCell>
        <mxCell id="Zwns_LGNWtH9GuJmWQfA-173" value="" style="html=1;points=[];perimeter=orthogonalPerimeter;" vertex="1" parent="Zwns_LGNWtH9GuJmWQfA-94">
          <mxGeometry x="75" y="640" width="10" height="70" as="geometry" />
        </mxCell>
        <mxCell id="Zwns_LGNWtH9GuJmWQfA-104" value="" style="text;strokeColor=none;fillColor=none;align=left;verticalAlign=middle;spacingTop=-1;spacingLeft=4;spacingRight=4;rotatable=0;labelPosition=right;points=[];portConstraint=eastwest;" vertex="1" parent="1">
          <mxGeometry x="-301" y="-1550" width="20" height="14" as="geometry" />
        </mxCell>
        <mxCell id="Zwns_LGNWtH9GuJmWQfA-109" value="onInterceptTouchEvent" style="html=1;verticalAlign=bottom;startArrow=circle;startFill=1;endArrow=open;startSize=6;endSize=8;" edge="1" parent="1">
          <mxGeometry x="0.0773" y="7" width="80" relative="1" as="geometry">
            <mxPoint x="-531" y="-1543" as="sourcePoint" />
            <mxPoint x="-381" y="-1543" as="targetPoint" />
            <mxPoint as="offset" />
          </mxGeometry>
        </mxCell>
        <mxCell id="Zwns_LGNWtH9GuJmWQfA-113" value="b.interceptTouchEvent" style="html=1;verticalAlign=bottom;endArrow=block;" edge="1" parent="1">
          <mxGeometry x="-0.3218" y="-9" width="80" relative="1" as="geometry">
            <mxPoint x="-360" y="-1440" as="sourcePoint" />
            <mxPoint x="-150" y="-1440" as="targetPoint" />
            <mxPoint as="offset" />
          </mxGeometry>
        </mxCell>
        <mxCell id="Zwns_LGNWtH9GuJmWQfA-117" value="return false" style="html=1;verticalAlign=bottom;endArrow=open;dashed=1;endSize=8;" edge="1" parent="1">
          <mxGeometry relative="1" as="geometry">
            <mxPoint x="-150" y="-1410" as="sourcePoint" />
            <mxPoint x="-360" y="-1410" as="targetPoint" />
          </mxGeometry>
        </mxCell>
        <mxCell id="Zwns_LGNWtH9GuJmWQfA-118" value="NestedScrollView" style="shape=umlLifeline;perimeter=lifelinePerimeter;whiteSpace=wrap;html=1;container=1;collapsible=0;recursiveResize=0;outlineConnect=0;" vertex="1" parent="1">
          <mxGeometry x="130" y="-1640" width="110" height="1340" as="geometry" />
        </mxCell>
        <mxCell id="Zwns_LGNWtH9GuJmWQfA-120" value="" style="html=1;points=[];perimeter=orthogonalPerimeter;" vertex="1" parent="Zwns_LGNWtH9GuJmWQfA-118">
          <mxGeometry x="45" y="283" width="10" height="97" as="geometry" />
        </mxCell>
        <mxCell id="Zwns_LGNWtH9GuJmWQfA-134" value="" style="html=1;points=[];perimeter=orthogonalPerimeter;" vertex="1" parent="Zwns_LGNWtH9GuJmWQfA-118">
          <mxGeometry x="50" y="310" width="10" height="20" as="geometry" />
        </mxCell>
        <mxCell id="Zwns_LGNWtH9GuJmWQfA-135" value="startNestedScroll" style="edgeStyle=orthogonalEdgeStyle;html=1;align=left;spacingLeft=2;endArrow=block;rounded=0;entryX=1;entryY=0;" edge="1" target="Zwns_LGNWtH9GuJmWQfA-134" parent="Zwns_LGNWtH9GuJmWQfA-118">
          <mxGeometry relative="1" as="geometry">
            <mxPoint x="55" y="290" as="sourcePoint" />
            <Array as="points">
              <mxPoint x="80" y="290" />
            </Array>
          </mxGeometry>
        </mxCell>
        <mxCell id="Zwns_LGNWtH9GuJmWQfA-184" value="" style="html=1;points=[];perimeter=orthogonalPerimeter;" vertex="1" parent="Zwns_LGNWtH9GuJmWQfA-118">
          <mxGeometry x="50" y="720" width="10" height="100" as="geometry" />
        </mxCell>
        <mxCell id="Zwns_LGNWtH9GuJmWQfA-185" value="" style="html=1;points=[];perimeter=orthogonalPerimeter;" vertex="1" parent="Zwns_LGNWtH9GuJmWQfA-118">
          <mxGeometry x="55" y="750" width="10" height="40" as="geometry" />
        </mxCell>
        <mxCell id="Zwns_LGNWtH9GuJmWQfA-186" value="requestDisallowInterceptTouchEvent" style="edgeStyle=orthogonalEdgeStyle;html=1;align=left;spacingLeft=2;endArrow=block;rounded=0;entryX=1;entryY=0;" edge="1" target="Zwns_LGNWtH9GuJmWQfA-185" parent="Zwns_LGNWtH9GuJmWQfA-118">
          <mxGeometry x="0.0769" y="5" relative="1" as="geometry">
            <mxPoint x="60" y="730" as="sourcePoint" />
            <Array as="points">
              <mxPoint x="85" y="730" />
            </Array>
            <mxPoint y="1" as="offset" />
          </mxGeometry>
        </mxCell>
        <mxCell id="Zwns_LGNWtH9GuJmWQfA-189" value="dispatchNestedPreScroll" style="html=1;verticalAlign=bottom;endArrow=block;" edge="1" parent="Zwns_LGNWtH9GuJmWQfA-118" target="Zwns_LGNWtH9GuJmWQfA-136">
          <mxGeometry width="80" relative="1" as="geometry">
            <mxPoint x="60" y="810" as="sourcePoint" />
            <mxPoint x="140" y="810" as="targetPoint" />
          </mxGeometry>
        </mxCell>
        <mxCell id="Zwns_LGNWtH9GuJmWQfA-200" value="" style="html=1;points=[];perimeter=orthogonalPerimeter;" vertex="1" parent="Zwns_LGNWtH9GuJmWQfA-118">
          <mxGeometry x="50" y="990" width="10" height="80" as="geometry" />
        </mxCell>
        <mxCell id="Zwns_LGNWtH9GuJmWQfA-119" value="dispatchTouchEvent()" style="html=1;verticalAlign=bottom;endArrow=block;" edge="1" parent="1" target="Zwns_LGNWtH9GuJmWQfA-120">
          <mxGeometry width="80" relative="1" as="geometry">
            <mxPoint x="-370.5" y="-1347" as="sourcePoint" />
            <mxPoint x="-280" y="-1347" as="targetPoint" />
            <Array as="points">
              <mxPoint x="-10" y="-1347" />
            </Array>
          </mxGeometry>
        </mxCell>
        <mxCell id="Zwns_LGNWtH9GuJmWQfA-121" value="TOUCH_DOWN" style="shape=umlActor;verticalLabelPosition=bottom;verticalAlign=top;html=1;" vertex="1" parent="1">
          <mxGeometry x="-571" y="-1580" width="30" height="60" as="geometry" />
        </mxCell>
        <mxCell id="Zwns_LGNWtH9GuJmWQfA-129" value="" style="html=1;points=[];perimeter=orthogonalPerimeter;" vertex="1" parent="1">
          <mxGeometry x="-371" y="-1470" width="10" height="40" as="geometry" />
        </mxCell>
        <mxCell id="Zwns_LGNWtH9GuJmWQfA-130" value="&lt;span style=&quot;text-align: center&quot;&gt;performIntercept()&lt;/span&gt;" style="edgeStyle=orthogonalEdgeStyle;html=1;align=left;spacingLeft=2;endArrow=block;rounded=0;entryX=1;entryY=0;" edge="1" target="Zwns_LGNWtH9GuJmWQfA-129" parent="1">
          <mxGeometry relative="1" as="geometry">
            <mxPoint x="-366" y="-1490" as="sourcePoint" />
            <Array as="points">
              <mxPoint x="-341" y="-1490" />
            </Array>
          </mxGeometry>
        </mxCell>
        <mxCell id="Zwns_LGNWtH9GuJmWQfA-133" value="Loop" style="shape=umlFrame;whiteSpace=wrap;html=1;" vertex="1" parent="1">
          <mxGeometry x="-440" y="-1460" width="330" height="60" as="geometry" />
        </mxCell>
        <mxCell id="Zwns_LGNWtH9GuJmWQfA-136" value="NestedScrollChildHelper" style="shape=umlLifeline;perimeter=lifelinePerimeter;whiteSpace=wrap;html=1;container=1;collapsible=0;recursiveResize=0;outlineConnect=0;" vertex="1" parent="1">
          <mxGeometry x="310" y="-1640" width="150" height="1310" as="geometry" />
        </mxCell>
        <mxCell id="Zwns_LGNWtH9GuJmWQfA-141" value="" style="html=1;points=[];perimeter=orthogonalPerimeter;" vertex="1" parent="Zwns_LGNWtH9GuJmWQfA-136">
          <mxGeometry x="70" y="340" width="10" height="40" as="geometry" />
        </mxCell>
        <mxCell id="Zwns_LGNWtH9GuJmWQfA-168" value="" style="html=1;points=[];perimeter=orthogonalPerimeter;" vertex="1" parent="Zwns_LGNWtH9GuJmWQfA-136">
          <mxGeometry x="80" y="560" width="10" height="40" as="geometry" />
        </mxCell>
        <mxCell id="Zwns_LGNWtH9GuJmWQfA-169" value="onNestedScrollAccepted" style="edgeStyle=orthogonalEdgeStyle;html=1;align=left;spacingLeft=2;endArrow=block;rounded=0;entryX=1;entryY=0;exitX=1;exitY=0.167;exitDx=0;exitDy=0;exitPerimeter=0;" edge="1" target="Zwns_LGNWtH9GuJmWQfA-168" parent="Zwns_LGNWtH9GuJmWQfA-136" source="Zwns_LGNWtH9GuJmWQfA-170">
          <mxGeometry x="-0.7135" y="20" relative="1" as="geometry">
            <mxPoint x="85" y="540" as="sourcePoint" />
            <Array as="points">
              <mxPoint x="110" y="540" />
              <mxPoint x="110" y="560" />
            </Array>
            <mxPoint as="offset" />
          </mxGeometry>
        </mxCell>
        <mxCell id="Zwns_LGNWtH9GuJmWQfA-170" value="" style="html=1;points=[];perimeter=orthogonalPerimeter;" vertex="1" parent="Zwns_LGNWtH9GuJmWQfA-136">
          <mxGeometry x="70" y="520" width="10" height="120" as="geometry" />
        </mxCell>
        <mxCell id="Zwns_LGNWtH9GuJmWQfA-187" value="" style="html=1;points=[];perimeter=orthogonalPerimeter;" vertex="1" parent="Zwns_LGNWtH9GuJmWQfA-136">
          <mxGeometry x="70" y="780" width="10" height="80" as="geometry" />
        </mxCell>
        <mxCell id="Zwns_LGNWtH9GuJmWQfA-195" value="dispatchNestedPreScroll" style="html=1;verticalAlign=bottom;endArrow=block;" edge="1" parent="Zwns_LGNWtH9GuJmWQfA-136" target="Zwns_LGNWtH9GuJmWQfA-192">
          <mxGeometry width="80" relative="1" as="geometry">
            <mxPoint x="80" y="850" as="sourcePoint" />
            <mxPoint x="160" y="850" as="targetPoint" />
          </mxGeometry>
        </mxCell>
        <mxCell id="Zwns_LGNWtH9GuJmWQfA-201" value="" style="html=1;points=[];perimeter=orthogonalPerimeter;" vertex="1" parent="Zwns_LGNWtH9GuJmWQfA-136">
          <mxGeometry x="70" y="1000" width="10" height="80" as="geometry" />
        </mxCell>
        <mxCell id="Zwns_LGNWtH9GuJmWQfA-137" value="&lt;span style=&quot;text-align: left&quot;&gt;startNestedScroll&lt;/span&gt;" style="html=1;verticalAlign=bottom;endArrow=block;entryX=-0.335;entryY=0.221;entryDx=0;entryDy=0;entryPerimeter=0;" edge="1" parent="1" source="Zwns_LGNWtH9GuJmWQfA-120" target="Zwns_LGNWtH9GuJmWQfA-141">
          <mxGeometry width="80" relative="1" as="geometry">
            <mxPoint x="190" y="-1290" as="sourcePoint" />
            <mxPoint x="370" y="-1290" as="targetPoint" />
          </mxGeometry>
        </mxCell>
        <mxCell id="Zwns_LGNWtH9GuJmWQfA-138" value="&lt;span style=&quot;color: rgb(50 , 50 , 50) ; font-size: 13px ; background-color: rgba(255 , 255 , 255 , 0.01)&quot;&gt;ViewparentCompat&lt;/span&gt;" style="shape=umlLifeline;perimeter=lifelinePerimeter;whiteSpace=wrap;html=1;container=1;collapsible=0;recursiveResize=0;outlineConnect=0;" vertex="1" parent="1">
          <mxGeometry x="500" y="-1640" width="120" height="1320" as="geometry" />
        </mxCell>
        <mxCell id="Zwns_LGNWtH9GuJmWQfA-149" value="onStartNestedScroll" style="edgeStyle=orthogonalEdgeStyle;rounded=0;orthogonalLoop=1;jettySize=auto;html=1;" edge="1" parent="Zwns_LGNWtH9GuJmWQfA-138" target="Zwns_LGNWtH9GuJmWQfA-148">
          <mxGeometry relative="1" as="geometry">
            <mxPoint x="55" y="402" as="sourcePoint" />
            <Array as="points">
              <mxPoint x="-350" y="402" />
              <mxPoint x="-350" y="402" />
            </Array>
          </mxGeometry>
        </mxCell>
        <mxCell id="Zwns_LGNWtH9GuJmWQfA-142" value="" style="html=1;points=[];perimeter=orthogonalPerimeter;" vertex="1" parent="Zwns_LGNWtH9GuJmWQfA-138">
          <mxGeometry x="55" y="350" width="10" height="60" as="geometry" />
        </mxCell>
        <mxCell id="Zwns_LGNWtH9GuJmWQfA-158" value="" style="html=1;points=[];perimeter=orthogonalPerimeter;" vertex="1" parent="Zwns_LGNWtH9GuJmWQfA-138">
          <mxGeometry x="55" y="510" width="10" height="90" as="geometry" />
        </mxCell>
        <mxCell id="Zwns_LGNWtH9GuJmWQfA-192" value="" style="html=1;points=[];perimeter=orthogonalPerimeter;" vertex="1" parent="Zwns_LGNWtH9GuJmWQfA-138">
          <mxGeometry x="55" y="800" width="10" height="110" as="geometry" />
        </mxCell>
        <mxCell id="Zwns_LGNWtH9GuJmWQfA-202" value="" style="html=1;points=[];perimeter=orthogonalPerimeter;" vertex="1" parent="Zwns_LGNWtH9GuJmWQfA-138">
          <mxGeometry x="55" y="1040" width="10" height="80" as="geometry" />
        </mxCell>
        <mxCell id="Zwns_LGNWtH9GuJmWQfA-143" value="&lt;span style=&quot;text-align: left&quot;&gt;startNestedScroll&lt;/span&gt;" style="html=1;verticalAlign=bottom;endArrow=block;" edge="1" parent="1">
          <mxGeometry width="80" relative="1" as="geometry">
            <mxPoint x="390" y="-1280" as="sourcePoint" />
            <mxPoint x="550" y="-1280" as="targetPoint" />
          </mxGeometry>
        </mxCell>
        <mxCell id="Zwns_LGNWtH9GuJmWQfA-150" value="AppbarLayout" style="shape=umlLifeline;perimeter=lifelinePerimeter;whiteSpace=wrap;html=1;container=1;collapsible=0;recursiveResize=0;outlineConnect=0;" vertex="1" parent="1">
          <mxGeometry x="-20" y="-1640" width="100" height="1310" as="geometry" />
        </mxCell>
        <mxCell id="Zwns_LGNWtH9GuJmWQfA-153" value="" style="html=1;points=[];perimeter=orthogonalPerimeter;" vertex="1" parent="Zwns_LGNWtH9GuJmWQfA-150">
          <mxGeometry x="45" y="420" width="10" height="100" as="geometry" />
        </mxCell>
        <mxCell id="Zwns_LGNWtH9GuJmWQfA-155" value="" style="html=1;points=[];perimeter=orthogonalPerimeter;" vertex="1" parent="Zwns_LGNWtH9GuJmWQfA-150">
          <mxGeometry x="50" y="460" width="10" height="30" as="geometry" />
        </mxCell>
        <mxCell id="Zwns_LGNWtH9GuJmWQfA-156" value="canScrollChildren" style="edgeStyle=orthogonalEdgeStyle;html=1;align=left;spacingLeft=2;endArrow=block;rounded=0;entryX=1;entryY=0;" edge="1" target="Zwns_LGNWtH9GuJmWQfA-155" parent="Zwns_LGNWtH9GuJmWQfA-150">
          <mxGeometry relative="1" as="geometry">
            <mxPoint x="55" y="440" as="sourcePoint" />
            <Array as="points">
              <mxPoint x="80" y="440" />
            </Array>
          </mxGeometry>
        </mxCell>
        <mxCell id="Zwns_LGNWtH9GuJmWQfA-198" value="" style="html=1;points=[];perimeter=orthogonalPerimeter;" vertex="1" parent="Zwns_LGNWtH9GuJmWQfA-150">
          <mxGeometry x="45" y="910" width="10" height="50" as="geometry" />
        </mxCell>
        <mxCell id="Zwns_LGNWtH9GuJmWQfA-209" value="" style="html=1;points=[];perimeter=orthogonalPerimeter;" vertex="1" parent="Zwns_LGNWtH9GuJmWQfA-150">
          <mxGeometry x="45" y="1160" width="10" height="50" as="geometry" />
        </mxCell>
        <mxCell id="Zwns_LGNWtH9GuJmWQfA-157" value="retrun true" style="html=1;verticalAlign=bottom;endArrow=open;dashed=1;endSize=8;" edge="1" parent="1">
          <mxGeometry relative="1" as="geometry">
            <mxPoint x="20" y="-1145.71" as="sourcePoint" />
            <mxPoint x="-360" y="-1146" as="targetPoint" />
          </mxGeometry>
        </mxCell>
        <mxCell id="Zwns_LGNWtH9GuJmWQfA-160" value="onStartNestedScroll" style="html=1;verticalAlign=bottom;endArrow=block;" edge="1" parent="1">
          <mxGeometry width="80" relative="1" as="geometry">
            <mxPoint x="-365" y="-1196.0000000000002" as="sourcePoint" />
            <mxPoint x="20" y="-1196" as="targetPoint" />
          </mxGeometry>
        </mxCell>
        <mxCell id="Zwns_LGNWtH9GuJmWQfA-165" value="return true" style="html=1;verticalAlign=bottom;endArrow=open;dashed=1;endSize=8;" edge="1" parent="1" target="Zwns_LGNWtH9GuJmWQfA-170">
          <mxGeometry relative="1" as="geometry">
            <mxPoint x="-365" y="-1106.0000000000002" as="sourcePoint" />
            <mxPoint x="380" y="-1106" as="targetPoint" />
          </mxGeometry>
        </mxCell>
        <mxCell id="Zwns_LGNWtH9GuJmWQfA-172" value="onNestedScrollAccepted" style="html=1;verticalAlign=bottom;endArrow=block;exitX=0.1;exitY=0.756;exitDx=0;exitDy=0;exitPerimeter=0;" edge="1" parent="1" source="Zwns_LGNWtH9GuJmWQfA-170">
          <mxGeometry width="80" relative="1" as="geometry">
            <mxPoint x="10" y="-940" as="sourcePoint" />
            <mxPoint x="-360" y="-1029" as="targetPoint" />
          </mxGeometry>
        </mxCell>
        <mxCell id="Zwns_LGNWtH9GuJmWQfA-178" value="ACTION_MOVE" style="html=1;verticalAlign=bottom;startArrow=circle;startFill=1;endArrow=open;startSize=6;endSize=8;entryX=-0.129;entryY=0.199;entryDx=0;entryDy=0;entryPerimeter=0;" edge="1" parent="1" target="Zwns_LGNWtH9GuJmWQfA-184">
          <mxGeometry width="80" relative="1" as="geometry">
            <mxPoint x="-541" y="-900" as="sourcePoint" />
            <mxPoint x="170" y="-900" as="targetPoint" />
          </mxGeometry>
        </mxCell>
        <mxCell id="Zwns_LGNWtH9GuJmWQfA-181" value="TOUCH_MOVE" style="shape=umlActor;verticalLabelPosition=bottom;verticalAlign=top;html=1;" vertex="1" parent="1">
          <mxGeometry x="-591" y="-950" width="30" height="60" as="geometry" />
        </mxCell>
        <mxCell id="Zwns_LGNWtH9GuJmWQfA-197" value="onNestedPreScroll" style="html=1;verticalAlign=bottom;endArrow=block;" edge="1" parent="1" source="Zwns_LGNWtH9GuJmWQfA-138">
          <mxGeometry width="80" relative="1" as="geometry">
            <mxPoint x="490" y="-730" as="sourcePoint" />
            <mxPoint x="-360" y="-760" as="targetPoint" />
            <Array as="points">
              <mxPoint x="80" y="-760" />
            </Array>
          </mxGeometry>
        </mxCell>
        <mxCell id="Zwns_LGNWtH9GuJmWQfA-199" value="onNestedPreScroll" style="html=1;verticalAlign=bottom;endArrow=block;" edge="1" parent="1">
          <mxGeometry width="80" relative="1" as="geometry">
            <mxPoint x="-360" y="-700" as="sourcePoint" />
            <mxPoint x="20" y="-700" as="targetPoint" />
          </mxGeometry>
        </mxCell>
        <mxCell id="Zwns_LGNWtH9GuJmWQfA-205" value="dispatchNestedScroll" style="html=1;verticalAlign=bottom;endArrow=block;" edge="1" parent="1" target="Zwns_LGNWtH9GuJmWQfA-136">
          <mxGeometry width="80" relative="1" as="geometry">
            <mxPoint x="190" y="-620" as="sourcePoint" />
            <mxPoint x="270" y="-620" as="targetPoint" />
          </mxGeometry>
        </mxCell>
        <mxCell id="Zwns_LGNWtH9GuJmWQfA-206" value="dispatchNestedScroll" style="html=1;verticalAlign=bottom;endArrow=block;exitX=1.014;exitY=0.605;exitDx=0;exitDy=0;exitPerimeter=0;" edge="1" parent="1" source="Zwns_LGNWtH9GuJmWQfA-201" target="Zwns_LGNWtH9GuJmWQfA-138">
          <mxGeometry width="80" relative="1" as="geometry">
            <mxPoint x="400" y="-590" as="sourcePoint" />
            <mxPoint x="480" y="-590" as="targetPoint" />
          </mxGeometry>
        </mxCell>
        <mxCell id="Zwns_LGNWtH9GuJmWQfA-208" value="onNestedScroll" style="html=1;verticalAlign=bottom;endArrow=block;" edge="1" parent="1">
          <mxGeometry width="80" relative="1" as="geometry">
            <mxPoint x="550" y="-530" as="sourcePoint" />
            <mxPoint x="-361" y="-530" as="targetPoint" />
            <Array as="points">
              <mxPoint x="79" y="-530" />
            </Array>
          </mxGeometry>
        </mxCell>
        <mxCell id="Zwns_LGNWtH9GuJmWQfA-210" value="onNestedScroll" style="html=1;verticalAlign=bottom;endArrow=block;" edge="1" parent="1" target="Zwns_LGNWtH9GuJmWQfA-150">
          <mxGeometry width="80" relative="1" as="geometry">
            <mxPoint x="-360" y="-470" as="sourcePoint" />
            <mxPoint x="9" y="-470" as="targetPoint" />
          </mxGeometry>
        </mxCell>
      </root>
    </mxGraphModel>
  </diagram>
</mxfile>
